<?xml version="1.0" encoding="iso-8859-1"?>
<!-- Generator: Adobe Illustrator 19.0.0, SVG Export Plug-In . SVG Version: 6.00 Build 0)  -->
<svg version="1.1" id="Capa_1" xmlns="http://www.w3.org/2000/svg" xmlns:xlink="http://www.w3.org/1999/xlink" x="0px" y="0px"
	 viewBox="0 0 511.997 511.997" style="enable-background:new 0 0 511.997 511.997;" xml:space="preserve">
<path style="fill:#303C42;" d="M416.269,425.059l-4.674-1.391l4.674-1.391c11.354-3.385,20.729-10.99,26.354-21.417
	c5.646-10.427,6.896-22.427,3.521-33.771c-3.375-11.365-10.979-20.74-21.396-26.385c-10.458-5.667-22.5-6.896-33.792-3.5
	L256.01,377.369l-134.97-40.164c-11.313-3.365-23.333-2.146-33.792,3.5c-10.417,5.646-18.021,15.021-21.396,26.375
	c-3.375,11.354-2.125,23.354,3.521,33.781c5.625,10.427,15,18.031,26.354,21.406l4.69,1.396l-4.69,1.396
	c-19.824,5.898-32.303,24.512-31.531,44.276c0,0.034-0.01,0.065-0.01,0.099h0.009c0.148,3.591,0.586,7.204,1.658,10.802
	c3.375,11.365,10.979,20.74,21.396,26.385c6.583,3.563,13.792,5.365,21.063,5.365c4.271,0,8.542-0.615,12.729-1.865l134.964-40.159
	l134.953,40.159c4.188,1.25,8.479,1.875,12.729,1.875c7.292,0,14.5-1.823,21.083-5.385c10.417-5.646,18-15.01,21.375-26.365
	c1.072-3.602,1.509-7.217,1.658-10.813h0.009c0-0.034-0.01-0.065-0.01-0.099C448.569,449.567,436.091,430.957,416.269,425.059z"/>
<path style="fill:#8D6E63;" d="M397.04,357.643c5.958-1.729,12.146-1.073,17.542,1.823c5.416,2.938,9.354,7.792,11.104,13.698
	c1.771,5.896,1.125,12.135-1.813,17.552c-2.938,5.406-7.792,9.354-13.688,11.104v0.01l-35.979,10.708L325.672,398.1l-32.273-9.604
	L397.04,357.643z"/>
<path style="fill:#A1887F;" d="M109.821,490.167c-4.279,0.275-8.54-0.225-12.406-2.306c-5.417-2.938-9.354-7.792-11.104-13.698
	c-0.595-2.001-0.49-3.992-0.538-5.986c0.685-11.145,9.754-20.077,21.079-20.077c11.771,0,21.333,9.573,21.333,21.333
	C128.186,480.143,120.127,488.662,109.821,490.167z"/>
<path style="fill:#8D6E63;" d="M147.773,479.919c1.023-3.138,1.746-6.525,1.746-10.484c0-13.53-6.451-25.464-16.302-33.285
	l4.573-1.361l80.813,24.052L147.773,479.919z"/>
<path style="opacity:0.1;enable-background:new    ;" d="M146.049,453.337l45.521,13.548l27.033-8.044l-80.813-24.052l-4.573,1.361
	C138.88,440.645,143.212,446.601,146.049,453.337z"/>
<path style="fill:#8D6E63;" d="M362.478,469.434c0,3.96,0.724,7.345,1.746,10.483L101.811,401.82
	c-5.896-1.75-10.75-5.698-13.688-11.104c-2.938-5.417-3.583-11.656-1.813-17.563c1.75-5.896,5.687-10.75,11.104-13.688
	c5.417-2.896,11.604-3.552,17.542-1.823l263.822,78.508C368.928,443.972,362.478,455.904,362.478,469.434z"/>
<path style="opacity:0.2;fill:#FFFFFF;enable-background:new    ;" d="M94.082,371.132c5.417-2.896,11.604-3.552,17.542-1.823
	l258.236,76.845c2.514-3.736,5.396-7.206,8.919-10.004l-263.822-78.508c-5.938-1.729-12.125-1.073-17.542,1.823
	c-5.417,2.938-9.354,7.792-11.104,13.688c-0.643,2.143-0.612,4.332-0.624,6.508C87.777,376.196,90.422,373.117,94.082,371.132z"/>
<path style="fill:#A1887F;" d="M425.686,474.174c-1.75,5.896-5.688,10.75-11.083,13.677c-3.854,2.099-8.129,2.595-12.426,2.316
	c-10.306-1.505-18.366-10.023-18.366-20.733c0-11.76,9.563-21.333,21.333-21.333c11.327,0,20.397,8.934,21.081,20.082
	C426.177,470.179,426.282,472.17,425.686,474.174z"/>
<path style="fill:#303C42;" d="M255.978,341.33c70.563,0,127.979-57.833,127.979-128.927c0-3.583-0.229-6.906-0.479-10.229
	l-0.229-3.25c-3.896-50.844-27.208-82.5-47.792-110.437c-18.396-24.979-34.292-46.542-34.292-77.823c0-4-2.25-7.667-5.813-9.5
	c-3.542-1.812-7.854-1.49-11.083,0.844c-34.75,25.052-56.042,69.635-63.729,100.208c-5.708,22.792-6.896,48.052-7.146,66.313
	c-22.563-9.563-29.625-47.958-29.708-48.396c-0.583-3.302-2.667-6.146-5.667-7.667c-2.979-1.5-6.5-1.573-9.521-0.083
	c-1.563,0.76-38.25,19.542-40.333,92.646c-0.167,2.448-0.167,4.917-0.167,7.375C127.998,283.497,185.415,341.33,255.978,341.33z"/>
<path style="fill:#FFCA28;" d="M149.478,206.028c1-34.938,10.292-54.365,18-64.542c7.083,20.24,23.229,50.51,56.521,50.51
	c5.896,0,10.667-4.771,10.667-10.667c0-23.073,0.5-49.719,6.583-73.917c5.979-23.813,20.354-53.823,40.708-75.104
	c5.438,26.896,20.521,47.385,36.313,68.833c19.813,26.875,40.292,54.667,43.688,99.281l0.229,3.333
	c0.229,2.813,0.438,5.615,0.438,8.646c0,59.323-47.833,107.594-106.646,107.594s-106.646-48.271-106.646-107.594
	C149.332,210.403,149.332,208.414,149.478,206.028z"/>
<path style="fill:#FF8F00;" d="M179.636,238.301c0.717-25.044,7.377-38.97,12.903-46.265c5.078,14.508,16.651,36.207,40.516,36.207
	c4.226,0,7.646-3.42,7.646-7.646c0-16.539,0.358-35.64,4.719-52.985c4.286-17.069,14.59-38.582,29.181-53.837
	c3.898,19.28,14.71,33.967,26.03,49.342c14.202,19.265,28.882,39.187,31.316,71.167l0.164,2.389
	c0.164,2.016,0.314,4.025,0.314,6.198c0,42.524-34.288,77.126-76.447,77.126s-76.447-34.602-76.447-77.126
	C179.531,241.437,179.531,240.011,179.636,238.301z"/>
<path style="fill:#E53935;" d="M211.308,272.194c0.419-14.654,4.317-22.803,7.55-27.071c2.971,8.489,9.743,21.186,23.707,21.186
	c2.473,0,4.474-2.001,4.474-4.474c0-9.678,0.21-20.854,2.761-31.003c2.508-9.988,8.537-22.575,17.075-31.501
	c2.281,11.281,8.607,19.875,15.231,28.871c8.31,11.272,16.9,22.929,18.324,41.642l0.096,1.398c0.096,1.18,0.183,2.355,0.183,3.626
	c0,24.882-20.063,45.129-44.731,45.129s-44.731-20.247-44.731-45.129C211.246,274.029,211.246,273.195,211.308,272.194z"/>
<linearGradient id="SVGID_1_" gradientUnits="userSpaceOnUse" x1="-41.6354" y1="636.3962" x2="-23.8406" y2="628.1033" gradientTransform="matrix(21.3333 0 0 -21.3333 996.3649 13791.6318)">
	<stop  offset="0" style="stop-color:#FFFFFF;stop-opacity:0.2"/>
	<stop  offset="1" style="stop-color:#FFFFFF;stop-opacity:0"/>
</linearGradient>
<path style="fill:url(#SVGID_1_);" d="M416.269,425.059l-4.674-1.391l4.674-1.391c11.354-3.385,20.729-10.99,26.354-21.417
	c5.646-10.427,6.896-22.427,3.521-33.771c-3.375-11.365-10.979-20.74-21.396-26.385c-10.458-5.667-22.5-6.896-33.792-3.5
	L256.01,377.369l-134.97-40.164c-11.313-3.365-23.333-2.146-33.792,3.5c-10.417,5.646-18.021,15.021-21.396,26.375
	c-3.375,11.354-2.125,23.354,3.521,33.781c5.625,10.427,15,18.031,26.354,21.406l4.69,1.396l-4.69,1.396
	c-19.824,5.898-32.303,24.512-31.531,44.276c0,0.034-0.01,0.065-0.01,0.099h0.009c0.148,3.591,0.586,7.204,1.658,10.802
	c3.375,11.365,10.979,20.74,21.396,26.385c6.583,3.563,13.792,5.365,21.063,5.365c4.271,0,8.542-0.615,12.729-1.865l134.964-40.159
	l134.953,40.159c4.188,1.25,8.479,1.875,12.729,1.875c7.292,0,14.5-1.823,21.083-5.385c10.417-5.646,18-15.01,21.375-26.365
	c1.072-3.602,1.509-7.217,1.658-10.813h0.009c0-0.034-0.01-0.065-0.01-0.099C448.569,449.567,436.091,430.957,416.269,425.059z
	 M255.978,341.33c70.563,0,127.979-57.833,127.979-128.927c0-3.583-0.229-6.906-0.479-10.229l-0.229-3.25
	c-3.896-50.844-27.208-82.5-47.792-110.437c-18.396-24.979-34.292-46.542-34.292-77.823c0-4-2.25-7.667-5.813-9.5
	c-3.542-1.812-7.854-1.49-11.083,0.844c-34.75,25.052-56.042,69.635-63.729,100.208c-5.708,22.792-6.896,48.052-7.146,66.313
	c-22.563-9.563-29.625-47.958-29.708-48.396c-0.583-3.302-2.667-6.146-5.667-7.667c-2.979-1.5-6.5-1.573-9.521-0.083
	c-1.563,0.76-38.25,19.542-40.333,92.646c-0.167,2.448-0.167,4.917-0.167,7.375C127.998,283.497,185.415,341.33,255.978,341.33z"/>
<g>
</g>
<g>
</g>
<g>
</g>
<g>
</g>
<g>
</g>
<g>
</g>
<g>
</g>
<g>
</g>
<g>
</g>
<g>
</g>
<g>
</g>
<g>
</g>
<g>
</g>
<g>
</g>
<g>
</g>
</svg>
